<svg width="104" height="104" viewBox="0 0 104 104" fill="none" xmlns="http://www.w3.org/2000/svg">
<mask id="path-1-outside-1_956_3" maskUnits="userSpaceOnUse" x="0" y="0" width="104" height="104" fill="black">
<rect fill="white" width="104" height="104"/>
<path d="M100 88C100 94.6274 94.6274 100 88 100H0V0H100V88Z"/>
</mask>
<path d="M104 88C104 96.8366 96.8366 104 88 104H0V96H88C92.4183 96 96 92.4183 96 88H104ZM0 0H100H0ZM104 0V88C104 96.8366 96.8366 104 88 104V96C92.4183 96 96 92.4183 96 88V0H104ZM0 100V0V100Z" fill="#080808" mask="url(#path-1-outside-1_956_3)"/>
</svg>
